<mxfile host="app.diagrams.net" modified="2021-02-01T14:15:50.280Z" agent="5.0 (Windows NT 10.0; Win64; x64) AppleWebKit/537.36 (KHTML, like Gecko) Chrome/87.0.4280.141 Safari/537.36" etag="xzI7eDUxsDw6Jv88L2S8" version="14.2.9" type="github">
  <diagram id="7delY6RPEtvNfOt12FHv" name="Page-1">
    <mxGraphModel dx="868" dy="482" grid="1" gridSize="10" guides="1" tooltips="1" connect="1" arrows="1" fold="1" page="1" pageScale="1" pageWidth="1169" pageHeight="1654" math="0" shadow="0">
      <root>
        <mxCell id="0" />
        <mxCell id="1" parent="0" />
        <mxCell id="4eujhxy8S5uiPxCPN12W-1" value="" style="verticalLabelPosition=bottom;verticalAlign=top;html=1;shadow=0;dashed=0;strokeWidth=1;shape=mxgraph.android.phone2;strokeColor=#c0c0c0;" vertex="1" parent="1">
          <mxGeometry x="620" y="200" width="210" height="400" as="geometry" />
        </mxCell>
        <mxCell id="4eujhxy8S5uiPxCPN12W-2" value="" style="strokeWidth=1;html=1;shadow=0;dashed=0;shape=mxgraph.android.rrect;rSize=0;" vertex="1" parent="1">
          <mxGeometry x="630" y="240" width="190" height="320" as="geometry" />
        </mxCell>
        <mxCell id="4eujhxy8S5uiPxCPN12W-3" value="&lt;b&gt;TORNEO CIVITAVECCHIA&lt;/b&gt;&lt;br&gt;&lt;br&gt;&lt;br&gt;&lt;br&gt;&lt;br&gt;17.00 - 19.00" style="strokeColor=inherit;fillColor=inherit;gradientColor=inherit;strokeWidth=1;html=1;shadow=0;dashed=0;shape=mxgraph.android.rrect;rSize=0;align=left;spacingLeft=10;fontSize=8;fontColor=#333333;" vertex="1" parent="4eujhxy8S5uiPxCPN12W-2">
          <mxGeometry width="190" height="80" as="geometry" />
        </mxCell>
        <mxCell id="4eujhxy8S5uiPxCPN12W-4" value="Menu Item 2" style="strokeColor=inherit;fillColor=inherit;gradientColor=inherit;strokeWidth=1;html=1;shadow=0;dashed=0;shape=mxgraph.android.rrect;rSize=0;align=left;spacingLeft=10;fontSize=8;fontColor=#333333;" vertex="1" parent="4eujhxy8S5uiPxCPN12W-2">
          <mxGeometry y="80" width="190" height="80" as="geometry" />
        </mxCell>
        <mxCell id="4eujhxy8S5uiPxCPN12W-5" value="Menu Item 3" style="strokeColor=inherit;fillColor=inherit;gradientColor=inherit;strokeWidth=1;html=1;shadow=0;dashed=0;shape=mxgraph.android.rrect;rSize=0;align=left;spacingLeft=10;fontSize=8;fontColor=#333333;" vertex="1" parent="4eujhxy8S5uiPxCPN12W-2">
          <mxGeometry y="160" width="190" height="80" as="geometry" />
        </mxCell>
        <mxCell id="4eujhxy8S5uiPxCPN12W-6" value="Menu Item 4" style="strokeColor=inherit;fillColor=inherit;gradientColor=inherit;strokeWidth=1;html=1;shadow=0;dashed=0;shape=mxgraph.android.rrect;rSize=0;align=left;spacingLeft=10;fontSize=8;fontColor=#333333;" vertex="1" parent="4eujhxy8S5uiPxCPN12W-2">
          <mxGeometry y="240" width="190" height="80" as="geometry" />
        </mxCell>
        <mxCell id="4eujhxy8S5uiPxCPN12W-7" value="&lt;b&gt;TORNEO VITERBO&lt;/b&gt;&lt;br&gt;&lt;br&gt;&lt;br&gt;&lt;br&gt;&lt;br&gt;12.00 - 14.00" style="strokeColor=inherit;fillColor=inherit;gradientColor=inherit;strokeWidth=1;html=1;shadow=0;dashed=0;shape=mxgraph.android.rrect;rSize=0;align=left;spacingLeft=10;fontSize=8;fontColor=#333333;" vertex="1" parent="4eujhxy8S5uiPxCPN12W-2">
          <mxGeometry y="80" width="190" height="80" as="geometry" />
        </mxCell>
        <mxCell id="4eujhxy8S5uiPxCPN12W-8" value="&lt;b&gt;TORNEO LADISPOLI&lt;br&gt;&lt;/b&gt;&lt;br&gt;&lt;br&gt;&lt;br&gt;&lt;br&gt;17.00 - 19.00" style="strokeColor=inherit;fillColor=inherit;gradientColor=inherit;strokeWidth=1;html=1;shadow=0;dashed=0;shape=mxgraph.android.rrect;rSize=0;align=left;spacingLeft=10;fontSize=8;fontColor=#333333;" vertex="1" parent="4eujhxy8S5uiPxCPN12W-2">
          <mxGeometry y="160" width="190" height="80" as="geometry" />
        </mxCell>
        <mxCell id="4eujhxy8S5uiPxCPN12W-9" value="&lt;b&gt;TORNEO VETRALLA&lt;/b&gt;&lt;br&gt;&lt;br&gt;&lt;br&gt;&lt;br&gt;&lt;br&gt;15.00 - 17.00" style="strokeColor=inherit;fillColor=inherit;gradientColor=inherit;strokeWidth=1;html=1;shadow=0;dashed=0;shape=mxgraph.android.rrect;rSize=0;align=left;spacingLeft=10;fontSize=8;fontColor=#333333;" vertex="1" parent="4eujhxy8S5uiPxCPN12W-2">
          <mxGeometry y="240" width="190" height="80" as="geometry" />
        </mxCell>
        <mxCell id="4eujhxy8S5uiPxCPN12W-10" value="" style="html=1;verticalLabelPosition=bottom;labelBackgroundColor=#ffffff;verticalAlign=top;shadow=0;dashed=0;strokeWidth=2;shape=mxgraph.ios7.misc.add;fillColor=#00dd00;strokeColor=#ffffff;" vertex="1" parent="4eujhxy8S5uiPxCPN12W-2">
          <mxGeometry x="160" y="50" width="20" height="20" as="geometry" />
        </mxCell>
        <mxCell id="4eujhxy8S5uiPxCPN12W-11" value="" style="html=1;verticalLabelPosition=bottom;labelBackgroundColor=#ffffff;verticalAlign=top;shadow=0;dashed=0;strokeWidth=2;shape=mxgraph.ios7.misc.add;fillColor=#00dd00;strokeColor=#ffffff;" vertex="1" parent="4eujhxy8S5uiPxCPN12W-2">
          <mxGeometry x="160" y="130" width="20" height="20" as="geometry" />
        </mxCell>
        <mxCell id="4eujhxy8S5uiPxCPN12W-12" value="" style="html=1;verticalLabelPosition=bottom;labelBackgroundColor=#ffffff;verticalAlign=top;shadow=0;dashed=0;strokeWidth=2;shape=mxgraph.ios7.misc.add;fillColor=#00dd00;strokeColor=#ffffff;" vertex="1" parent="4eujhxy8S5uiPxCPN12W-2">
          <mxGeometry x="160" y="210" width="20" height="20" as="geometry" />
        </mxCell>
        <mxCell id="4eujhxy8S5uiPxCPN12W-13" value="" style="html=1;verticalLabelPosition=bottom;labelBackgroundColor=#ffffff;verticalAlign=top;shadow=0;dashed=0;strokeWidth=2;shape=mxgraph.ios7.misc.add;fillColor=#00dd00;strokeColor=#ffffff;" vertex="1" parent="4eujhxy8S5uiPxCPN12W-2">
          <mxGeometry x="160" y="290" width="20" height="20" as="geometry" />
        </mxCell>
      </root>
    </mxGraphModel>
  </diagram>
</mxfile>
